<svg width="18" height="16" viewBox="0 0 18 16" fill="none" xmlns="http://www.w3.org/2000/svg">
<g clip-path="url(#clip0)">
<rect width="18" height="16" fill="white"/>
<path d="M17.9964 6.11658C17.9945 6.0982 17.9904 6.08004 17.9841 6.06245C17.9799 6.04673 17.9742 6.03138 17.967 6.01657C17.9586 6.0021 17.9485 5.98841 17.937 5.97576C17.9254 5.96072 17.912 5.94688 17.8971 5.93441C17.8923 5.93069 17.8902 5.9256 17.8851 5.92188L14.9998 3.93006V1.8657C14.9998 1.42387 14.5969 1.06566 14.0998 1.06566H10.8485L9.54673 0.167212C9.22514 -0.0557372 8.77416 -0.0557372 8.45257 0.167212L7.1505 1.06566H3.89923C3.40216 1.06566 2.99918 1.42384 2.99918 1.8657V3.93009L0.114854 5.92191C0.109756 5.92566 0.107646 5.93072 0.102865 5.93444C0.0879225 5.94688 0.0745273 5.96076 0.0629604 5.97579C0.0514285 5.98844 0.0413733 6.0021 0.0329706 6.0166C0.0256929 6.03138 0.0199973 6.04676 0.0158838 6.06248C0.00962566 6.07982 0.00551218 6.0977 0.00357849 6.11583C0.00357849 6.12142 -7.62939e-06 6.12623 -7.62939e-06 6.13183V15.1997C0.000414267 15.3693 0.0621517 15.5343 0.176099 15.6704C0.177892 15.6728 0.178208 15.6757 0.180283 15.6778C0.182392 15.68 0.186892 15.6824 0.189881 15.6853C0.358428 15.8824 0.620566 15.9987 0.899123 15.9997H17.0999C17.3796 15.999 17.6428 15.8822 17.8116 15.684C17.814 15.6813 17.8176 15.6805 17.8197 15.6779C17.8218 15.6752 17.822 15.6728 17.8239 15.6704C17.9378 15.5343 17.9996 15.3693 18 15.1997V6.13258C17.9999 6.12698 17.9967 6.12217 17.9964 6.11658ZM8.81948 0.588014C8.92425 0.51401 9.07262 0.51401 9.17739 0.588014L9.86951 1.06563H8.12944L8.81948 0.588014ZM0.974713 15.4664L8.81952 10.0498C8.92436 9.97596 9.07262 9.97596 9.17743 10.0498L17.0243 15.4664H0.974713ZM17.3999 15.0506L9.54673 9.62901C9.22507 9.40624 8.77423 9.40624 8.45257 9.62901L0.599085 15.0506V6.53872L5.51544 9.93224C5.64644 10.0225 5.83496 10.0013 5.93653 9.88489C6.0381 9.76845 6.01426 9.60088 5.88326 9.51059L0.888611 6.06323L2.99922 4.60528V6.66592C2.99922 6.81321 3.13356 6.93259 3.29922 6.93259C3.46492 6.93259 3.59922 6.81317 3.59922 6.66592V1.86567C3.59922 1.71838 3.73353 1.599 3.89923 1.599H14.0997C14.2654 1.599 14.3997 1.71838 14.3997 1.86567V6.66592C14.3997 6.81321 14.534 6.93259 14.6997 6.93259C14.8654 6.93259 14.9997 6.81317 14.9997 6.66592V4.60528L17.1103 6.06323L12.107 9.51675C12.0209 9.57472 11.9765 9.66935 11.9908 9.76451C12.0051 9.85967 12.0758 9.94068 12.1759 9.97659C12.2761 10.0125 12.3903 9.9978 12.4748 9.93808L17.3999 6.53872V15.0506H17.3999Z" fill="black"/>
<path d="M12.5997 6.39938V5.33267C12.5997 3.56527 10.9879 2.13251 8.99953 2.13251C7.01121 2.13251 5.39935 3.56527 5.39935 5.33267C5.39935 7.10007 7.01121 8.53283 8.99953 8.53283C9.16523 8.53283 9.29953 8.41345 9.29953 8.26616C9.29953 8.11887 9.16523 7.99949 8.99953 7.99949C7.34261 7.99949 5.99939 6.80553 5.99939 5.3327C5.99939 3.85988 7.34261 2.66591 8.99953 2.66591C10.6565 2.66591 11.9997 3.85988 11.9997 5.3327V6.39941C11.9997 6.69399 11.731 6.93278 11.3996 6.93278C11.0682 6.93278 10.7996 6.69399 10.7996 6.39941V5.3327C10.7996 5.18541 10.6653 5.06603 10.4996 5.06603C10.3339 5.06603 10.1996 5.18541 10.1996 5.3327C10.1996 5.92182 9.66229 6.39941 8.99953 6.39941C8.33677 6.39941 7.79948 5.92182 7.79948 5.3327C7.79948 4.74358 8.33677 4.26599 8.99953 4.26599C9.16523 4.26599 9.29953 4.14661 9.29953 3.99932C9.29953 3.85203 9.16523 3.73265 8.99953 3.73265C8.19389 3.73106 7.48514 4.20549 7.26434 4.89421C7.04355 5.58293 7.36444 6.31819 8.05002 6.69433C8.7356 7.07048 9.61884 6.99591 10.2125 6.51173C10.2778 7.0757 10.8293 7.49503 11.4662 7.46506C12.1031 7.43506 12.6017 6.96635 12.5997 6.39938Z" fill="black"/>
</g>
<defs>
<clipPath id="clip0">
<rect width="18" height="16" fill="white"/>
</clipPath>
</defs>
</svg>
