<svg width="15" height="14" viewBox="0 0 15 14" fill="none" xmlns="http://www.w3.org/2000/svg">
<path opacity="0.54" fill-rule="evenodd" clip-rule="evenodd" d="M10.1649 8.49998H9.53059L9.31011 8.29448C10.089 7.44173 10.5627 6.33623 10.5627 5.12498C10.5627 2.43248 8.23807 0.249975 5.37026 0.249975C2.50245 0.249975 0.177841 2.43248 0.177841 5.12498C0.177841 7.81748 2.50245 9.99998 5.37026 9.99998C6.66038 9.99998 7.83706 9.55598 8.74533 8.82548L8.96581 9.03098V9.62498L12.9584 13.3682L14.1494 12.25L10.1649 8.49998ZM5.37026 8.49998C3.38436 8.49998 1.7755 6.98948 1.7755 5.12498C1.7755 3.26123 3.38436 1.74998 5.37026 1.74998C7.35536 1.74998 8.96501 3.26123 8.96501 5.12498C8.96501 6.98948 7.35536 8.49998 5.37026 8.49998Z" fill="black"/>
</svg>
