<svg xmlns="http://www.w3.org/2000/svg" viewBox="0 0 325 368.802"><defs><style>.a{fill:#bb1b05;}.b{fill:#ff7714;}.c{fill:#004973;}.d{fill:#0097c7;}.e{fill:rgba(253,66,25,0.76);}.f{fill:#fbaa4a;}.g{fill:rgba(251,170,74,0.64);}.h{fill:#2dc3f3;}.i{fill:#0083ad;}.j{fill:#ff3d00;}</style></defs><g transform="translate(0 -4.941)"><path class="a" d="M128.762,219.762h49.059V344.923H128.762Z"/><path class="a" d="M128.762,219.762h49.059V344.923H128.762Z"/><path class="a" d="M128.762,219.762h49.059V344.923H128.762Z"/><path class="b" d="M70.74,220.174h58.494V345.335H70.74Z"/><path class="c" d="M175.935,248.582h58.494V373.743H175.935Z"/><path class="d" d="M275.312,195.883,325,224.364l-99.377,52.215L175.935,248.1Z"/><path class="e" d="M71.087,272l35.671,27H35.416Z"/><path class="f" d="M71.211,65.782l63.683,37.465L71.211,139.066Z"/><path class="g" d="M6,60,25,71.247,6,82Z"/><path class="b" d="M0,142l24,13.8L0,169Z"/><path class="g" d="M71.683,139.122,8.043,101.6,71.767,65.837Z"/><path class="c" d="M121.214,114.364l61.325,28.8v64.247l-61.325-32.677Z"/><path class="h" d="M182.819,85.408l.364,58.487-56.736-26.863Z"/><path class="i" d="M223.391,4.941,222.852,21.3l-15.814-8.559Z"/><path class="h" d="M183.143,85.118l4.333-58.366,54.44,30.266Z"/><path class="b" d="M135.366,102.836v49.585L71.211,190.942V138.9Z"/><path class="i" d="M250.467,107.776v49.586l-67.928,38.521V143.839Z"/><path class="f" d="M135,152.241,188.2,190.2,135,218.678,71.211,256.816V190.2Z"/><path class="j" d="M228.453,167.886l49.374,28.481-98.748,52.215L129.705,220.1Z"/></g></svg>