<?xml version="1.0" encoding="utf-8"?>
<!-- Generator: Adobe Illustrator 22.0.0, SVG Export Plug-In . SVG Version: 6.00 Build 0)  -->
<svg version="1.1" id="Camada_1" xmlns="http://www.w3.org/2000/svg" xmlns:xlink="http://www.w3.org/1999/xlink" x="0px" y="0px"
	 viewBox="0 0 216.6 261" style="enable-background:new 0 0 216.6 261;" xml:space="preserve">
<style type="text/css">
	.st0{fill:#979797;}
	.st1{fill:#EEEEEE;}
	.st2{fill:#E3E3E3;}
	.st3{fill:#CACACA;}
	.st4{fill:#686868;}
	.st5{fill:#C9C9C9;}
	.st6{fill:#F7F7F7;}
	.st7{fill:#999999;}
	.st8{fill:#F6F6F6;}
	.st9{fill:#E1E1E1;}
	.st10{fill:#C7C7C7;}
	.st11{fill:#959595;}
</style>
<title>Ativo 1</title>
<g id="Camada_2_1_">
	<g id="Camada_1-2">
		<g>
			<path class="st0" d="M0,243.1V218h1l20.8,12.7l0,0l0,0l22.1,13.2c0,0,0-0.2,0,0l0,0L21.8,255l0,0v-24.3L0,243.1L0,243.1z"/>
			<path class="st1" d="M111,232l21,11l-23,13l4,5h-7l3-5L111,232z"/>
			<path class="st2" d="M22,77.1L0,89V64L22,77.1"/>
			<path class="st2" d="M0,116l22.1,11.9L0,141l0,0V116z"/>
			<path class="st3" d="M1,218c-0.3,0-0.7,0-1,0v-25c5.7,2.9,11.4,5.8,17.1,8.7c1.6,0.8,5.4,2.8,5.4,2.8l0,0c-0.1,0.2,0,0,0,0
				S8,213.7,1,218z"/>
			<path class="st4" d="M0,141L0,141l22.1,13l0,0L0,166V141z"/>
			<path class="st2" d="M64,261H44l-0.1-17.1l0,0c1.6,0.8,22.6,13.1,22.6,13.1l0,0l0,0L64,261z"/>
			<path class="st4" d="M88.3,244.9L66.5,257l6.9,4h14.8v-16.1"/>
			<path class="st5" d="M43.9,243.9L44,261H28l-6.2-6L43.9,243.9z"/>
			<path class="st5" d="M21.8,255l-6.8,6H0v-17.9L21.8,255z"/>
			<path class="st4" d="M153.4,255.2L132,243c0,5.7,0,12.3,0,18h15L153.4,255.2"/>
			<polygon class="st2" points="197,256 193,261 176,261 176,243.9 			"/>
			<path class="st3" d="M88.3,244.9L109,256l-3,5H88.3V244.9z"/>
			<path class="st6" d="M22.3,25.7L22,50.6L1.4,39L22.3,25.7"/>
			<path class="st7" d="M88.5,140.7l-21.4,12.2l0,0L67,128.7"/>
			<polyline class="st6" points="201.9,233 216.6,245.4 216.6,245.4 197,256 197,256 201.9,233 			"/>
			<polygon class="st6" points="22.3,25.7 22.3,0 44.5,12.4 			"/>
			<path class="st3" d="M132,243l-10.5-5.5L111,232l21-14.3V243z"/>
			<path class="st2" d="M66.9,128.7L66.9,128.7L66.9,128.7l-23,11.5l0,0L44,116l0,0L66.9,128.7z"/>
			<path class="st1" d="M88.4,63.9L66.6,76.6V51.4L88.4,63.9z"/>
			<polygon class="st2" points="197.6,179.6 197.6,205.2 175.7,192.3 			"/>
			<polygon class="st2" points="67,152.9 67,152.9 88.6,166.7 88.6,166.7 88.6,166.7 66.9,179.4 			"/>
			<path class="st5" d="M66.9,179.4"/>
			<path class="st5" d="M44.2,167.8l22.7,11.6l-22.7,13.3"/>
			<path class="st5" d="M44.2,192.7"/>
			<path class="st7" d="M131.9,243L131.9,243c6.8-4,15.2-8.6,21.9-12.6v0.1c0,7.4-0.3,17.2-0.4,24.7L131.9,243"/>
			<polyline class="st4" points="88.1,217 88.1,192.1 110,204 88.1,217 			"/>
			<path class="st0" d="M110,204l22.5-11.5L110,179.4V204l0.1,26L88,217L110,204z"/>
			<polygon class="st1" points="88.4,115.4 110,128.1 88.4,140.7 			"/>
			<polygon class="st8" points="132.3,166.4 132.3,141.2 153.8,153.8 			"/>
			<path class="st9" d="M153.8,230.5c-6.7,4-21.8,12.6-21.8,12.6s0-17,0-25.4C137.8,221,148,227,153.8,230.5z"/>
			<path class="st2" d="M44,114.1L23,102l20-12L44,114.1z"/>
			<path class="st7" d="M22.1,154v-26.1l21.8,12.3L22.1,154z"/>
			<path class="st4" d="M43.6,167.8"/>
			<polygon class="st4" points="44.2,167.8 22.1,154 22.8,179.5 			"/>
			<path class="st10" d="M22.5,204.5l0.3-25l21.4,13.2"/>
			<path class="st10" d="M44.2,192.7l-21.7,11.8"/>
			<path class="st5" d="M66.4,231.9l-22.6,12c0,0,0-0.2,0,0l0,0L66.5,257L66.4,231.9"/>
			<path class="st11" d="M88.3,244.9l-21.9-13l0.1,25.1L88.3,244.9z"/>
			<path class="st5" d="M44.1,217L44.1,217l0.1-24.3l0,0l22.4,11.9l0,0C66.2,204.9,44.1,217,44.1,217"/>
			<path class="st8" d="M66.4,231.9l0.2-27.3L44.1,217L66.4,231.9z"/>
			<polyline class="st9" points="44.2,192.8 66.9,179.4 66.6,204.6 44.2,192.7 			"/>
			<path class="st9" d="M44.2,192.7"/>
			<path class="st11" d="M44.2,192.7l-21.4-13.2l21.4-11.7C44.3,175.6,44.2,192.7,44.2,192.7z"/>
			<polygon class="st11" points="44.2,192.8 44.1,217 22.5,204.5 			"/>
		</g>
	</g>
</g>
<polygon class="st10" points="44.2,192.8 22.5,204.5 22.8,179.5 "/>
<polygon class="st5" points="66.9,179.4 44.2,167.8 44.2,192.8 "/>
<polygon class="st8" points="43,90.1 22,77.1 23,102.1 "/>
<polygon class="st4" points="22.5,204.5 44.1,217 21.7,230.7 "/>
</svg>
