<?xml version="1.0" encoding="utf-8"?>
<!-- Generator: Adobe Illustrator 22.0.0, SVG Export Plug-In . SVG Version: 6.00 Build 0)  -->
<svg version="1.1" id="Camada_1" xmlns="http://www.w3.org/2000/svg" xmlns:xlink="http://www.w3.org/1999/xlink" x="0px" y="0px"
	 viewBox="0 0 216.6 261" style="enable-background:new 0 0 216.6 261;" xml:space="preserve">
<style type="text/css">
	.st0{fill:#979797;}
	.st1{fill:#EEEEEE;}
	.st2{fill:#E3E3E3;}
	.st3{fill:#CACACA;}
	.st4{fill:#686868;}
	.st5{fill:#C9C9C9;}
	.st6{fill:#F7F7F7;}
	.st7{fill:#999999;}
	.st8{fill:#F6F6F6;}
	.st9{fill:#E1E1E1;}
	.st10{fill:#C7C7C7;}
	.st11{fill:#959595;}
</style>
<title>Ativo 1</title>
<g id="Camada_2_1_">
	<g id="Camada_1-2">
		<g>
			<path class="st0" d="M216.6,17.9l0,25.1h-1l-20.8-12.7l0,0l0,0l-22.1-13.2c0,0,0,0.2,0,0l0,0L194.8,6l0,0v24.3L216.6,17.9
				L216.6,17.9z"/>
			<path class="st1" d="M105.6,29l-21-11l23-13l-4-5h7l-3,5L105.6,29z"/>
			<path class="st2" d="M194.6,183.9l22-11.9v25L194.6,183.9"/>
			<path class="st2" d="M216.6,145l-22.1-11.9l22.1-13.1l0,0L216.6,145z"/>
			<path class="st3" d="M215.6,43c0.3,0,0.7,0,1,0v25c-5.7-2.9-11.4-5.8-17.1-8.7c-1.6-0.8-5.4-2.8-5.4-2.8l0,0c0.1-0.2,0,0,0,0
				S208.6,47.3,215.6,43z"/>
			<path class="st4" d="M216.6,120L216.6,120l-22.1-13l0,0l22.1-12V120z"/>
			<path class="st2" d="M152.6,0h20l0.1,17.1l0,0C171.1,16.3,150.1,4,150.1,4l0,0l0,0L152.6,0z"/>
			<path class="st4" d="M128.3,16.1L150.1,4l-6.9-4h-14.8V16.1"/>
			<path class="st5" d="M172.7,17.1L172.6,0h16l6.2,6L172.7,17.1z"/>
			<path class="st5" d="M194.8,6l6.8-6h15v17.9L194.8,6z"/>
			<path class="st4" d="M63.2,5.8L84.6,18c0-5.7,0-12.3,0-18h-15L63.2,5.8"/>
			<polygon class="st2" points="19.6,5 23.6,0 40.6,0 40.6,17.1 19.6,5 			"/>
			<path class="st3" d="M128.3,16.1L107.6,5l3-5h17.7L128.3,16.1z"/>
			<path class="st6" d="M194.3,235.3l0.3-24.9l20.6,11.6L194.3,235.3"/>
			<path class="st7" d="M128.1,120.3l21.4-12.2l0,0l0.1,24.2"/>
			<polyline class="st6" points="14.7,28 0,15.6 0,15.6 19.6,5 19.6,5 14.7,28 			"/>
			<polygon class="st6" points="194.3,235.3 194.3,261 172.1,248.6 			"/>
			<path class="st3" d="M84.6,18l10.5,5.5l10.5,5.5l-21,14.3L84.6,18z"/>
			<path class="st2" d="M149.7,132.3L149.7,132.3L149.7,132.3l23-11.5l0,0l-0.1,24.2l0,0L149.7,132.3z"/>
			<path class="st1" d="M128.2,197.1l21.8-12.7v25.2L128.2,197.1z"/>
			<polygon class="st2" points="19,81.4 19,55.8 40.9,68.7 			"/>
			<polygon class="st2" points="149.6,108.1 149.6,108.1 128,94.3 128,94.3 128,94.3 149.7,81.6 			"/>
			<path class="st5" d="M149.7,81.6"/>
			<path class="st5" d="M172.4,93.2l-22.7-11.6l22.7-13.3"/>
			<path class="st5" d="M172.4,68.3"/>
			<path class="st7" d="M84.7,18L84.7,18c-6.8,4-15.2,8.6-21.9,12.6v-0.1c0-7.4,0.3-17.2,0.4-24.7L84.7,18"/>
			<polyline class="st4" points="128.5,44 128.5,68.9 106.6,57 128.5,44 			"/>
			<path class="st0" d="M106.6,57L84.1,68.5l22.5,13.1L106.6,57l-0.1-26l22.1,13L106.6,57z"/>
			<polygon class="st1" points="128.2,145.6 106.6,132.9 128.2,120.3 			"/>
			<polygon class="st8" points="84.3,94.6 84.3,119.8 62.8,107.2 			"/>
			<path class="st9" d="M62.8,30.5c6.7-4,21.8-12.6,21.8-12.6s0,17,0,25.4C78.8,40,68.6,34,62.8,30.5z"/>
			<path class="st2" d="M172.6,146.9l21,12.1l-20,12L172.6,146.9z"/>
			<path class="st7" d="M194.5,107v26.1l-21.8-12.3L194.5,107z"/>
			<path class="st4" d="M173,93.2"/>
			<polygon class="st4" points="172.4,93.2 194.5,107 193.8,81.5 			"/>
			<path class="st10" d="M194.1,56.5l-0.3,25l-21.4-13.2"/>
			<path class="st10" d="M172.4,68.3l21.7-11.8"/>
			<path class="st5" d="M150.2,29.1l22.6-12c0,0,0,0.2,0,0l0,0L150.1,4L150.2,29.1"/>
			<path class="st11" d="M128.3,16.1l21.9,13L150.1,4L128.3,16.1z"/>
			<path class="st5" d="M172.5,44L172.5,44l-0.1,24.3l0,0L150,56.4l0,0C150.4,56.1,172.5,44,172.5,44"/>
			<path class="st8" d="M150.2,29.1L150,56.4L172.5,44L150.2,29.1z"/>
			<polyline class="st9" points="172.4,68.2 149.7,81.6 150,56.4 172.4,68.3 			"/>
			<path class="st9" d="M172.4,68.3"/>
			<path class="st11" d="M172.4,68.3l21.4,13.2l-21.4,11.7C172.3,85.4,172.4,68.3,172.4,68.3z"/>
			<polygon class="st11" points="172.4,68.2 172.5,44 194.1,56.5 			"/>
		</g>
	</g>
</g>
<polygon class="st10" points="172.4,68.2 194.1,56.5 193.8,81.5 "/>
<polygon class="st5" points="149.7,81.6 172.4,93.2 172.4,68.2 "/>
<polygon class="st8" points="173.6,170.9 194.6,183.9 193.6,158.9 "/>
<polygon class="st4" points="194.1,56.5 172.5,44 194.9,30.3 "/>
</svg>
