<svg xmlns="http://www.w3.org/2000/svg" width="219.727" height="233.627" viewBox="0 0 219.727 233.627"><defs><style>.a{fill:#fbaa4a;}.b{fill:rgba(251,170,74,0.59);}.c{fill:rgba(251,170,74,0.64);}.d{fill:#004973;}.e{fill:#ff7714;}.f{fill:#ff3d00;}.g{fill:#2dc3f3;}.h{fill:#eb6f15;}.i{fill:#bb1b05;}</style></defs><g transform="translate(78.894 39)"><path class="a" d="M67.832,147.933l35.655,23.53-35.63,23.079Z"/><path class="b" d="M124.826,81.434l16.007,8.506L124.92,98.188Z"/><path class="c" d="M67.76,194.627,29.678,167.316,67.76,142.365Z"/><path class="d" d="M-8.46,107.074l38.266,19.1v42.6L-8.46,147.1Z"/><path class="e" d="M68.072,109.616v38.3l-38.266,19.95V127.941Z"/><path class="a" d="M69.736,68.967l39.1,20.814L30.638,127.941l-39.1-20.814Z"/><path class="f" d="M-74.735,69.218-29.6,49.043,34.032,86.486-8.374,107.252Z"/><path class="g" d="M-78.894,151.781l45.13-20.174L29.872,169.05l-42.405,20.765Z"/><path class="h" d="M-29.088,53.1,11.866,34.938,69.736,68.967l-38.479,18.7Z"/><path class="e" d="M8.345,34.955,49.3,16.793l57.87,34.029-38.479,18.7Z"/><g transform="translate(-2.496)"><path class="f" d="M-.141-39,70.568-5.3V69.875L-.141,31.639Z" transform="translate(0)"/></g><path class="i" d="M-36.743-20.854l68.213,33.7V88.021L-36.743,49.785Z"/></g></svg>