<svg width="121" height="121" viewBox="0 0 121 121" fill="none" xmlns="http://www.w3.org/2000/svg">
<g clip-path="url(#clip0)">
<path d="M2.42328 112.964L19.9928 90.8894C19.9928 90.8894 28.0049 89.4087 39.2646 85.7465C57.1425 79.9316 60.5295 91.2735 60.5295 91.2735C60.5295 91.2735 63.9175 79.9316 81.7954 85.7465C93.0542 89.4087 101.067 90.8894 101.067 90.8894L118.636 112.964H2.42328Z" fill="#EDF2FA"/>
<path d="M113.996 107.134L112.649 105.582C112.649 105.582 102.348 103.68 87.8716 98.9707C64.8859 91.494 60.5295 106.077 60.5295 106.077C60.5295 106.077 56.1741 91.494 33.1884 98.9707C18.7124 103.68 8.41087 105.582 8.41087 105.582L7.9059 106.076L2.42419 112.964H118.636L113.996 107.134Z" fill="#FFC66C"/>
<path d="M39.6487 27.6458L44.3752 37.2226L54.9444 38.7587L47.297 46.2132L49.1018 56.739L39.6487 51.7697L30.1964 56.739L32.0012 46.2132L24.3538 38.7587L34.923 37.2226L39.6487 27.6458Z" fill="#36D28F"/>
<path d="M66.8024 112.964L63.8483 115.918C61.9992 117.767 59.0008 117.767 57.1517 115.918L54.1976 112.964L60.5 106.661L66.8024 112.964Z" fill="#FFC66C"/>
<path d="M93.5776 4.69241L90.8774 12.6546L95.9058 19.3937L87.4977 19.2866L82.6428 26.1512L80.1466 18.1216L72.1179 15.6263L78.9825 10.7714L78.8754 2.36328L85.6145 7.39264L93.5776 4.69241Z" fill="#6A80FF"/>
<path d="M91.6953 110.601C91.074 110.601 90.4638 110.854 90.0244 111.293C89.585 111.733 89.332 112.343 89.332 112.964C89.332 113.585 89.5841 114.195 90.0244 114.635C90.4638 115.074 91.074 115.327 91.6953 115.327C92.3166 115.327 92.9268 115.074 93.3653 114.635C93.8056 114.195 94.0586 113.585 94.0586 112.964C94.0586 112.343 93.8056 111.732 93.3653 111.293C92.9259 110.854 92.3166 110.601 91.6953 110.601Z" fill="black"/>
<path d="M120.485 111.492L102.916 89.4169C102.562 88.972 102.057 88.6692 101.496 88.5658C101.418 88.5501 93.4844 87.0638 82.5265 83.4995C75.1846 81.1113 69.1232 81.1261 64.512 83.5447C62.7636 84.4624 61.4702 85.6098 60.5295 86.7121C59.5898 85.6098 58.2964 84.4624 56.548 83.5447C51.9368 81.1261 45.8763 81.1113 38.5326 83.4995C27.5747 87.0638 19.6411 88.5501 19.5635 88.5649C19.0022 88.6683 18.4982 88.972 18.1437 89.4169L0.575118 111.492C0.00922287 112.202 -0.0987865 113.173 0.294478 113.99C0.688666 114.807 1.51581 115.327 2.42328 115.327H52.8203C53.832 118.608 56.8932 120.999 60.5028 120.999C64.1132 120.999 67.1744 118.608 68.1862 115.327H82.1637C83.4681 115.327 84.527 114.268 84.527 112.964C84.527 111.659 83.4681 110.601 82.1637 110.601H67.7809L63.1365 105.955C63.7292 104.763 65.1804 102.485 68.1585 100.923C72.7503 98.5156 79.1367 98.6144 87.1404 101.218C99.5652 105.259 108.841 107.236 111.476 107.762L113.735 110.601H101.305C100.001 110.601 98.9421 111.659 98.9421 112.964C98.9421 114.268 100.001 115.327 101.305 115.327H118.636C119.543 115.327 120.37 114.807 120.765 113.99C121.159 113.173 121.05 112.202 120.485 111.492ZM21.3009 93.0403C23.6956 92.552 30.7254 91.0094 39.9948 87.9944C46.4385 85.8979 51.6441 85.9477 55.0515 88.1365C57.0372 89.4133 57.8921 91.0583 58.1672 91.7008V98.8055C57.2994 98.0688 56.2849 97.3607 55.0968 96.7376C49.3353 93.7152 41.7184 93.7115 32.4573 96.7228C25.0074 99.1461 18.6422 100.824 14.2711 101.873L21.3009 93.0403ZM9.5842 107.762C12.2189 107.236 21.4948 105.259 33.9195 101.219C41.8615 98.6347 48.2137 98.5183 52.799 100.871C55.8297 102.425 57.2966 104.689 57.9059 105.913L53.2191 110.601H7.32524L9.5842 107.762ZM60.5028 116.272C58.7894 116.272 57.376 114.964 57.2089 113.295L60.5 110.004L63.7975 113.302C63.6276 114.968 62.2152 116.272 60.5028 116.272ZM88.6027 96.7237C79.3416 93.7115 71.7247 93.7161 65.9642 96.7376C64.7751 97.3607 63.7606 98.0697 62.8937 98.8055V91.6953C63.1901 91.0011 64.2129 89.0394 66.7073 87.7303C70.0999 85.9514 75.0646 86.0428 81.0652 87.9944C90.3346 91.0094 97.3644 92.552 99.7591 93.0403L106.79 101.875C102.422 100.827 96.0609 99.1498 88.6027 96.7237Z" fill="black"/>
<path d="M12.8375 80.1162C13.1135 81.1806 14.0726 81.8877 15.1241 81.8877C15.3198 81.8877 15.5192 81.8628 15.7177 81.8111C16.9815 81.4843 17.7403 80.1947 17.4135 78.9309L4.65182 29.6573C4.3241 28.3935 3.03353 27.6347 1.77158 27.9615C0.507775 28.2892 -0.251061 29.5789 0.0757369 30.8418L12.8375 80.1162Z" fill="black"/>
<path d="M105.282 81.8111C105.481 81.8628 105.68 81.8877 105.876 81.8877C106.927 81.8877 107.887 81.1806 108.163 80.1162L120.924 30.8418C121.251 29.5789 120.492 28.2892 119.228 27.9615C117.965 27.6347 116.676 28.3935 116.348 29.6573L103.586 78.9309C103.26 80.1947 104.018 81.4843 105.282 81.8111Z" fill="black"/>
<path d="M23.7833 7.71667C25.0886 7.71667 26.1466 6.65781 26.1466 5.35339V2.36328C26.1466 1.05886 25.0886 0 23.7833 0C22.4789 0 21.42 1.05886 21.42 2.36328V5.35339C21.42 6.65781 22.4789 7.71667 23.7833 7.71667Z" fill="black"/>
<path d="M23.7833 22.0431C25.0886 22.0431 26.1466 20.9852 26.1466 19.6799V16.6907C26.1466 15.3853 25.0886 14.3274 23.7833 14.3274C22.4789 14.3274 21.42 15.3853 21.42 16.6907V19.6799C21.42 20.9852 22.4789 22.0431 23.7833 22.0431Z" fill="black"/>
<path d="M29.4524 13.3848H32.4416C33.7469 13.3848 34.8049 12.3269 34.8049 11.0215C34.8049 9.7162 33.7469 8.65826 32.4416 8.65826H29.4524C28.147 8.65826 27.0891 9.7162 27.0891 11.0215C27.0891 12.3269 28.147 13.3848 29.4524 13.3848Z" fill="black"/>
<path d="M15.1259 13.3848H18.1151C19.4204 13.3848 20.4784 12.3269 20.4784 11.0215C20.4784 9.7162 19.4204 8.65826 18.1151 8.65826H15.1259C13.8206 8.65826 12.7626 9.7162 12.7626 11.0215C12.7626 12.3269 13.8206 13.3848 15.1259 13.3848Z" fill="black"/>
<path d="M86.4887 51.8713C86.4887 50.5669 85.4308 49.508 84.1254 49.508C82.8201 49.508 81.7621 50.5669 81.7621 51.8713V54.8614C81.7621 56.1658 82.8201 57.2237 84.1254 57.2237C85.4308 57.2237 86.4887 56.1658 86.4887 54.8614V51.8713Z" fill="black"/>
<path d="M84.1254 63.8354C82.8201 63.8354 81.7621 64.8933 81.7621 66.1977V69.1879C81.7621 70.4923 82.8201 71.5511 84.1254 71.5511C85.4308 71.5511 86.4887 70.4923 86.4887 69.1879V66.1977C86.4887 64.8933 85.4308 63.8354 84.1254 63.8354Z" fill="black"/>
<path d="M89.7945 58.1663C88.4892 58.1663 87.4312 59.2251 87.4312 60.5295C87.4312 61.8349 88.4892 62.8928 89.7945 62.8928H92.7837C94.0891 62.8928 95.147 61.8349 95.147 60.5295C95.147 59.2251 94.0891 58.1663 92.7837 58.1663H89.7945Z" fill="black"/>
<path d="M78.4572 58.1663H75.4671C74.1627 58.1663 73.1039 59.2251 73.1039 60.5295C73.1039 61.8349 74.1627 62.8928 75.4671 62.8928H78.4572C79.7617 62.8928 80.8205 61.8349 80.8205 60.5295C80.8205 59.2251 79.7617 58.1663 78.4572 58.1663Z" fill="black"/>
<path d="M24.0141 36.4204C23.1242 36.5496 22.3847 37.1727 22.1069 38.0285C21.8281 38.8843 22.0607 39.8231 22.7041 40.4509L29.4626 47.0385L27.8664 56.3402C27.715 57.2265 28.0797 58.1228 28.8071 58.6509C29.2189 58.9509 29.7063 59.1023 30.1965 59.1023C30.5731 59.1023 30.9498 59.0128 31.296 58.8309L39.6496 54.4395L48.0023 58.8309C48.7981 59.2491 49.7637 59.1799 50.4912 58.6509C51.2186 58.1228 51.5833 57.2265 51.4319 56.3402L49.8366 47.0385L56.5942 40.4509C57.2385 39.8231 57.4702 38.8843 57.1924 38.0285C56.9145 37.1727 56.175 36.5496 55.2842 36.4204L45.9455 35.0633L41.7683 26.5998C41.3704 25.7939 40.5488 25.2825 39.6496 25.2825C38.7495 25.2825 37.9279 25.7939 37.53 26.5998L33.3537 35.0633L24.0141 36.4204ZM37.0417 38.2685L39.6487 32.9862L42.2566 38.2685C42.6009 38.9664 43.2656 39.4502 44.0355 39.5619L49.8653 40.4084L45.6464 44.5211C45.0898 45.0639 44.8359 45.8458 44.967 46.6129L45.9631 52.4196L40.7491 49.6778C40.0604 49.3159 39.2379 49.3159 38.5492 49.6778L33.3343 52.4196L34.3304 46.6129C34.4624 45.8458 34.2076 45.0639 33.6509 44.5211L29.4321 40.4084L35.2618 39.5619C36.0318 39.4502 36.6974 38.9664 37.0417 38.2685Z" fill="black"/>
<path d="M71.4163 17.8825L78.2597 20.0103L80.3866 26.8528C80.6534 27.7122 81.3846 28.3446 82.2736 28.4859C82.3973 28.5052 82.521 28.5145 82.6438 28.5145C83.4026 28.5145 84.1254 28.148 84.5722 27.5156L88.7098 21.6656L95.8754 21.757C96.769 21.7643 97.6026 21.2677 98.0116 20.4664C98.4196 19.6651 98.3374 18.7013 97.7992 17.9803L93.513 12.2374L95.8144 5.45032C96.1034 4.59917 95.8837 3.65663 95.2476 3.02057C94.6116 2.38452 93.669 2.16481 92.8179 2.45375L86.0317 4.75518L80.2888 0.468968C79.5678 -0.0683089 78.604 -0.15047 77.8027 0.257565C77.0005 0.666524 76.5011 1.49367 76.5122 2.39375L76.6035 9.55929L70.7535 13.696C70.0187 14.2157 69.6429 15.1075 69.7833 15.9955C69.9245 16.8845 70.5569 17.6157 71.4163 17.8825ZM80.3479 12.7008C80.9821 12.2521 81.356 11.5192 81.3458 10.7409L81.2996 7.12124L84.2011 9.28604C84.8243 9.75131 85.6366 9.88055 86.3733 9.63038L89.801 8.46812L88.6387 11.8958C88.3886 12.6325 88.5178 13.4449 88.9831 14.068L91.1479 16.9695L87.5282 16.9233C87.518 16.9233 87.5079 16.9233 87.4977 16.9233C86.7315 16.9233 86.0114 17.2953 85.5683 17.9222L83.4783 20.8772L82.4037 17.4209C82.173 16.6778 81.5914 16.0962 80.8491 15.8654L77.3919 14.7908L80.3479 12.7008Z" fill="black"/>
<path d="M57.4277 32.2449C58.7331 32.2449 59.791 31.1861 59.791 29.8817V15.9383C59.791 14.6329 58.7331 13.575 57.4277 13.575C56.1233 13.575 55.0645 14.6329 55.0645 15.9383V29.8817C55.0645 31.1861 56.1224 32.2449 57.4277 32.2449Z" fill="black"/>
<path d="M57.4277 9.64978C58.049 9.64978 58.6592 9.39684 59.0986 8.95649C59.5381 8.51707 59.791 7.90778 59.791 7.2865C59.791 6.66429 59.5381 6.05501 59.0986 5.61559C58.6592 5.17616 58.049 4.92322 57.4277 4.92322C56.8064 4.92322 56.1962 5.17524 55.7568 5.61559C55.3174 6.05501 55.0645 6.66429 55.0645 7.2865C55.0645 7.90778 55.3174 8.51707 55.7568 8.95649C56.1962 9.39591 56.8064 9.64978 57.4277 9.64978Z" fill="black"/>
</g>
<defs>
<clipPath id="clip0">
<rect width="121" height="121" fill="white"/>
</clipPath>
</defs>
</svg>
