<svg width="128" height="128" viewBox="0 0 128 128" fill="none" xmlns="http://www.w3.org/2000/svg">
<g clip-path="url(#clip0)">
<path d="M64.0001 128C99.3464 128 128 99.3464 128 64.0001C128 28.6538 99.3464 0 64.0001 0C28.6538 0 0 28.6538 0 64.0001C0 99.3464 28.6538 128 64.0001 128Z" fill="#FFC10E"/>
<path d="M21.9822 64.0439C21.9822 87.2469 40.7931 106.058 63.9961 106.058C87.2001 106.058 106.012 87.2469 106.012 64.0439H21.9822Z" fill="#333333"/>
<path d="M40.6342 80.6748C40.6342 93.5769 51.0947 104.036 63.9957 104.036C76.8988 104.036 87.3583 93.5758 87.3583 80.6748H40.6342Z" fill="#CA2027"/>
<path d="M44.5465 51.9764C50.0977 51.9764 54.5978 47.4762 54.5978 41.925C54.5978 36.3738 50.0977 31.8737 44.5465 31.8737C38.9953 31.8737 34.4951 36.3738 34.4951 41.925C34.4951 47.4762 38.9953 51.9764 44.5465 51.9764Z" fill="#333333"/>
<path d="M82.5543 51.9764C88.1055 51.9764 92.6056 47.4762 92.6056 41.925C92.6056 36.3738 88.1055 31.8737 82.5543 31.8737C77.0031 31.8737 72.5029 36.3738 72.5029 41.925C72.5029 47.4762 77.0031 51.9764 82.5543 51.9764Z" fill="#333333"/>
</g>
<defs>
<clipPath id="clip0">
<rect width="128" height="128" fill="white"/>
</clipPath>
</defs>
</svg>
